<svg xmlns="http://www.w3.org/2000/svg" xmlns:xlink="http://www.w3.org/1999/xlink" zoomAndPan="magnify" preserveAspectRatio="xMidYMid meet" version="1.0" viewBox="0 0 196.02 45"><defs><g/><clipPath id="73a8a377df"><path d="M 0 0 L 65.996094 0 L 65.996094 45 L 0 45 Z M 0 0 " clip-rule="nonzero"/></clipPath></defs><g clip-path="url(#73a8a377df)"><path fill="#ffffff" d="M 5.90625 14.464844 C 6.625 14.464844 7.207031 13.886719 7.207031 13.171875 C 7.207031 12.460938 6.625 11.882812 5.90625 11.882812 C 5.191406 11.882812 4.613281 12.460938 4.613281 13.171875 C 4.613281 13.886719 5.191406 14.464844 5.90625 14.464844 M 59.835938 7.246094 C 61.570312 8.808594 62.410156 10.757812 62.410156 13.105469 C 62.421875 19.597656 63.503906 27.199219 65.914062 33.183594 C 66.15625 33.785156 65.863281 34.472656 65.253906 34.714844 C 64.648438 34.957031 63.957031 34.660156 63.714844 34.058594 C 62.125 30.113281 61.539062 27.769531 61.105469 24.824219 L 60.449219 26.578125 C 59.605469 28.792969 58.792969 30.933594 58.792969 32.40625 L 58.792969 44.191406 C 58.792969 44.628906 58.4375 44.988281 57.992188 44.988281 L 52.773438 44.988281 C 52.332031 44.988281 51.972656 44.632812 51.972656 44.191406 L 51.96875 32.976562 L 51.925781 32.660156 C 51.707031 31.78125 50.894531 30.503906 49.914062 29.433594 C 49.445312 28.921875 47.972656 27.457031 47.1875 27.636719 C 43.523438 28.464844 40.585938 28.539062 36.871094 28.464844 C 32.339844 28.378906 29.4375 28.320312 29.4375 32.933594 L 29.4375 44.1875 C 29.4375 44.628906 29.078125 44.988281 28.636719 44.988281 L 23.4375 44.988281 C 22.992188 44.988281 22.632812 44.628906 22.632812 44.1875 L 22.617188 37.796875 L 22.601562 33.21875 C 22.601562 32.691406 22.054688 31.71875 21.324219 30.648438 C 20.339844 29.203125 18.539062 26.875 17.25 25.679688 C 16.296875 24.75 14.84375 24.984375 13.929688 25.828125 C 13.363281 26.332031 12.738281 27.105469 12.210938 27.675781 C 11.808594 28.113281 11.375 28.398438 10.882812 28.542969 C 10.324219 28.6875 9.863281 28.679688 9.300781 28.542969 L 5.515625 27.632812 C 4.945312 27.496094 4.460938 27.214844 4.09375 26.824219 C 3.703125 26.371094 3.476562 25.953125 3.371094 25.359375 L 1.726562 16.164062 C 1.355469 14.085938 1.527344 12.035156 2.496094 10.140625 C 2.855469 8.1875 2.996094 5.03125 0.777344 4.679688 C 0.605469 4.652344 0.464844 4.5625 0.375 4.414062 L 0.09375 3.960938 C -0.00390625 3.808594 -0.0234375 3.636719 0.0351562 3.464844 C 0.0976562 3.296875 0.21875 3.171875 0.386719 3.109375 C 3.179688 2.109375 5.664062 4.707031 5.613281 6.882812 C 6.457031 6.484375 7.464844 6.261719 8.699219 6.277344 L 9.847656 6.3125 C 11.792969 6.386719 13.621094 6.457031 15.160156 5.167969 C 16.515625 3.699219 17.855469 2.292969 19.488281 1.304688 C 21.183594 0.28125 23.136719 -0.25 25.617188 0.140625 L 54.1875 4.667969 C 56.351562 5.007812 58.355469 5.898438 59.835938 7.246094 Z M 59.835938 7.246094 " fill-opacity="1" fill-rule="evenodd"/></g><g fill="#ffffff" fill-opacity="1"><g transform="translate(75.965818, 35.39714)"><g><path d="M 8.570312 -0.722656 C 8.570312 -0.34375 8.875 0 9.292969 0 L 12.800781 0 C 13.179688 0 13.523438 -0.34375 13.523438 -0.722656 L 13.523438 -12.875 L 22.324219 -25.558594 C 22.628906 -26.054688 22.324219 -26.664062 21.714844 -26.664062 L 17.789062 -26.664062 C 17.484375 -26.664062 17.292969 -26.476562 17.179688 -26.320312 L 11.085938 -17.5625 L 4.988281 -26.320312 C 4.875 -26.476562 4.683594 -26.664062 4.378906 -26.664062 L 0.496094 -26.664062 C -0.113281 -26.664062 -0.417969 -26.054688 -0.113281 -25.558594 L 8.570312 -12.835938 Z M 8.570312 -0.722656 "/></g></g></g><g fill="#ffffff" fill-opacity="1"><g transform="translate(98.16576, 35.39714)"><g><path d="M 1.179688 -4.835938 C 1.179688 -1.601562 3.277344 0.382812 6.324219 0.382812 C 8.683594 0.382812 10.09375 -0.761719 10.972656 -1.5625 L 11.429688 -0.535156 C 11.617188 -0.113281 11.808594 0 12.074219 0 L 13.445312 0 C 13.828125 0 14.171875 -0.34375 14.171875 -0.722656 L 14.171875 -8.988281 C 14.171875 -13.140625 13.066406 -15.617188 8.304688 -15.617188 C 5.867188 -15.617188 3.429688 -15.007812 3.125 -14.894531 C 2.78125 -14.78125 2.476562 -14.511719 2.589844 -13.941406 L 2.933594 -11.960938 C 3.007812 -11.464844 3.277344 -11.125 3.808594 -11.277344 C 4.683594 -11.542969 6.667969 -11.847656 8.074219 -11.847656 C 9.484375 -11.847656 10.09375 -11.160156 10.054688 -9.21875 C 10.054688 -9.21875 8.800781 -9.636719 7.277344 -9.636719 C 3.390625 -9.636719 1.179688 -7.542969 1.179688 -4.835938 Z M 5.371094 -4.835938 C 5.371094 -6.058594 6.363281 -6.894531 7.847656 -6.894531 C 8.953125 -6.894531 9.980469 -6.4375 9.980469 -6.4375 L 9.980469 -4.34375 C 9.75 -3.886719 8.570312 -2.855469 7.351562 -2.855469 C 6.171875 -2.855469 5.371094 -3.695312 5.371094 -4.835938 Z M 5.371094 -4.835938 "/></g></g></g><g fill="#ffffff" fill-opacity="1"><g transform="translate(114.425414, 35.39714)"><g><path d="M 2.285156 -0.722656 C 2.285156 -0.34375 2.628906 0 3.007812 0 L 6.246094 0 C 6.628906 0 6.972656 -0.34375 6.972656 -0.722656 L 6.972656 -7.160156 L 12.988281 -0.304688 C 13.105469 -0.152344 13.410156 0 13.636719 0 L 17.75 0 C 18.398438 0 18.628906 -0.648438 18.246094 -1.066406 L 11.464844 -8.34375 L 17.140625 -14.132812 C 17.523438 -14.550781 17.292969 -15.238281 16.648438 -15.238281 L 13.179688 -15.238281 C 12.761719 -15.238281 12.496094 -15.007812 12.226562 -14.78125 L 6.972656 -9.445312 L 6.972656 -25.941406 C 6.972656 -26.320312 6.628906 -26.664062 6.246094 -26.664062 L 3.007812 -26.664062 C 2.628906 -26.664062 2.285156 -26.320312 2.285156 -25.941406 Z M 2.285156 -0.722656 "/></g></g></g><g fill="#ffffff" fill-opacity="1"><g transform="translate(133.045944, 35.39714)"><g><path d="M 2.285156 -0.722656 C 2.285156 -0.34375 2.628906 0 3.007812 0 L 5.941406 0 C 6.476562 0 6.820312 -0.191406 6.820312 -0.722656 L 6.820312 -9.941406 C 7.085938 -10.476562 8 -11.503906 9.523438 -11.503906 C 9.941406 -11.503906 10.511719 -11.3125 10.628906 -11.277344 C 10.933594 -11.125 11.3125 -11.277344 11.503906 -11.617188 L 12.914062 -14.09375 C 13.371094 -15.046875 11.769531 -15.617188 9.980469 -15.617188 C 7.617188 -15.617188 6.210938 -14.019531 5.675781 -13.257812 L 5.140625 -14.742188 C 5.027344 -15.046875 4.800781 -15.238281 4.457031 -15.238281 L 3.007812 -15.238281 C 2.628906 -15.238281 2.285156 -14.933594 2.285156 -14.511719 Z M 2.285156 -0.722656 "/></g></g></g><g fill="#ffffff" fill-opacity="1"><g transform="translate(146.030807, 35.39714)"><g><path d="M 1.144531 -7.617188 C 1.144531 -3.238281 4.378906 0.382812 8.953125 0.382812 C 11.429688 0.382812 13.371094 -0.535156 14.628906 -1.714844 C 15.007812 -2.019531 14.933594 -2.4375 14.664062 -2.703125 L 13.105469 -4.496094 C 12.835938 -4.800781 12.496094 -4.722656 12.113281 -4.496094 C 11.429688 -4 10.324219 -3.542969 9.140625 -3.542969 C 6.933594 -3.542969 5.601562 -5.296875 5.484375 -6.855469 L 15.238281 -6.855469 C 15.578125 -6.855469 15.921875 -7.125 15.960938 -7.503906 C 16 -7.769531 16.039062 -8.265625 16.039062 -8.53125 C 16.039062 -12.648438 12.835938 -15.617188 8.914062 -15.617188 C 4.378906 -15.617188 1.144531 -11.921875 1.144531 -7.617188 Z M 5.828125 -9.523438 C 6.019531 -10.972656 7.277344 -12.113281 8.800781 -12.113281 C 10.246094 -12.113281 11.464844 -10.933594 11.582031 -9.523438 Z M 5.828125 -9.523438 "/></g></g></g><g fill="#ffffff" fill-opacity="1"><g transform="translate(162.975874, 35.39714)"><g><path d="M 1.179688 -4.835938 C 1.179688 -1.601562 3.277344 0.382812 6.324219 0.382812 C 8.683594 0.382812 10.09375 -0.761719 10.972656 -1.5625 L 11.429688 -0.535156 C 11.617188 -0.113281 11.808594 0 12.074219 0 L 13.445312 0 C 13.828125 0 14.171875 -0.34375 14.171875 -0.722656 L 14.171875 -8.988281 C 14.171875 -13.140625 13.066406 -15.617188 8.304688 -15.617188 C 5.867188 -15.617188 3.429688 -15.007812 3.125 -14.894531 C 2.78125 -14.78125 2.476562 -14.511719 2.589844 -13.941406 L 2.933594 -11.960938 C 3.007812 -11.464844 3.277344 -11.125 3.808594 -11.277344 C 4.683594 -11.542969 6.667969 -11.847656 8.074219 -11.847656 C 9.484375 -11.847656 10.09375 -11.160156 10.054688 -9.21875 C 10.054688 -9.21875 8.800781 -9.636719 7.277344 -9.636719 C 3.390625 -9.636719 1.179688 -7.542969 1.179688 -4.835938 Z M 5.371094 -4.835938 C 5.371094 -6.058594 6.363281 -6.894531 7.847656 -6.894531 C 8.953125 -6.894531 9.980469 -6.4375 9.980469 -6.4375 L 9.980469 -4.34375 C 9.75 -3.886719 8.570312 -2.855469 7.351562 -2.855469 C 6.171875 -2.855469 5.371094 -3.695312 5.371094 -4.835938 Z M 5.371094 -4.835938 "/></g></g></g><g fill="#ffffff" fill-opacity="1"><g transform="translate(179.235528, 35.39714)"><g><path d="M 1.144531 -7.617188 C 1.144531 -3.238281 4.304688 0.382812 8.457031 0.382812 C 11.65625 0.382812 13.445312 -1.90625 13.445312 -1.90625 L 13.828125 -0.722656 C 13.941406 -0.304688 14.207031 0 14.550781 0 L 16.039062 0 C 16.417969 0 16.761719 -0.34375 16.761719 -0.722656 L 16.761719 -25.941406 C 16.761719 -26.320312 16.417969 -26.664062 16.039062 -26.664062 L 12.800781 -26.664062 C 12.417969 -26.664062 12.074219 -26.320312 12.074219 -25.941406 L 12.074219 -14.933594 C 11.390625 -15.199219 10.207031 -15.617188 8.683594 -15.617188 C 4.152344 -15.617188 1.144531 -12.074219 1.144531 -7.617188 Z M 5.5625 -7.617188 C 5.5625 -9.75 7.125 -11.503906 9.257812 -11.503906 C 11.160156 -11.503906 12.226562 -10.628906 12.226562 -10.628906 L 12.226562 -6.210938 C 11.960938 -5.296875 11.046875 -3.734375 9.027344 -3.734375 C 7.007812 -3.734375 5.5625 -5.484375 5.5625 -7.617188 Z M 5.5625 -7.617188 "/></g></g></g></svg>