<svg xmlns="http://www.w3.org/2000/svg" xmlns:xlink="http://www.w3.org/1999/xlink" zoomAndPan="magnify" preserveAspectRatio="xMidYMid meet" version="1.0" viewBox="49.25 86.58 274.18 178.75"><defs><g/><clipPath id="abadca2971"><path d="M 118.476562 86.578125 L 256.46875 86.578125 L 256.46875 181.078125 L 118.476562 181.078125 Z M 118.476562 86.578125 " clip-rule="nonzero"/></clipPath></defs><g clip-path="url(#abadca2971)"><path fill="#222222" d="M 130.828125 116.949219 C 132.324219 116.949219 133.539062 115.738281 133.539062 114.238281 C 133.539062 112.742188 132.324219 111.53125 130.828125 111.53125 C 129.328125 111.53125 128.117188 112.742188 128.117188 114.238281 C 128.117188 115.738281 129.328125 116.949219 130.828125 116.949219 M 243.585938 101.792969 C 247.210938 105.070312 248.964844 109.167969 248.964844 114.09375 C 248.996094 127.734375 251.253906 143.699219 256.292969 156.265625 C 256.800781 157.53125 256.183594 158.976562 254.914062 159.480469 C 253.644531 159.988281 252.203125 159.371094 251.695312 158.105469 C 248.375 149.824219 247.144531 144.894531 246.238281 138.710938 L 244.871094 142.394531 C 243.105469 147.046875 241.410156 151.539062 241.410156 154.636719 L 241.410156 179.382812 C 241.410156 180.308594 240.65625 181.058594 239.734375 181.058594 L 228.820312 181.0625 C 227.898438 181.0625 227.144531 180.3125 227.144531 179.386719 L 227.140625 155.835938 L 227.046875 155.171875 C 226.589844 153.320312 224.886719 150.640625 222.839844 148.390625 C 221.863281 147.3125 218.785156 144.234375 217.144531 144.621094 C 209.476562 146.355469 203.335938 146.511719 195.570312 146.359375 C 186.097656 146.171875 180.027344 146.054688 180.027344 155.742188 L 180.027344 179.378906 C 180.027344 180.308594 179.277344 181.058594 178.347656 181.058594 L 167.476562 181.058594 C 166.550781 181.058594 165.796875 180.304688 165.796875 179.378906 L 165.769531 165.953125 L 165.734375 156.335938 C 165.734375 155.234375 164.59375 153.1875 163.0625 150.9375 C 161 147.90625 157.238281 143.019531 154.539062 140.503906 C 152.546875 138.554688 149.507812 139.050781 147.597656 140.820312 C 146.417969 141.878906 145.109375 143.5 144.007812 144.699219 C 143.164062 145.621094 142.253906 146.21875 141.230469 146.523438 C 140.0625 146.828125 139.097656 146.804688 137.925781 146.519531 L 130.003906 144.609375 C 128.816406 144.320312 127.800781 143.730469 127.035156 142.910156 C 126.21875 141.960938 125.738281 141.082031 125.519531 139.832031 L 122.082031 120.523438 C 121.304688 116.15625 121.667969 111.851562 123.691406 107.867188 C 124.445312 103.765625 124.742188 97.144531 120.097656 96.402344 C 119.738281 96.347656 119.449219 96.15625 119.253906 95.84375 L 118.667969 94.894531 C 118.46875 94.574219 118.425781 94.210938 118.550781 93.851562 C 118.675781 93.496094 118.929688 93.238281 119.285156 93.109375 C 125.125 91.003906 130.316406 96.457031 130.214844 101.03125 C 131.972656 100.191406 134.082031 99.726562 136.660156 99.761719 L 139.066406 99.832031 C 143.132812 99.988281 146.953125 100.132812 150.175781 97.425781 C 153.007812 94.34375 155.808594 91.386719 159.21875 89.316406 C 162.765625 87.164062 166.847656 86.046875 172.039062 86.871094 L 231.773438 96.375 C 236.296875 97.09375 240.488281 98.964844 243.585938 101.789062 Z M 243.585938 101.792969 " fill-opacity="1" fill-rule="evenodd"/></g><g fill="#222222" fill-opacity="1"><g transform="translate(49.820614, 264.420525)"><g><path d="M 20.246094 -1.710938 C 20.246094 -0.808594 20.964844 0 21.957031 0 L 30.234375 0 C 31.136719 0 31.945312 -0.808594 31.945312 -1.710938 L 31.945312 -30.414062 L 52.730469 -60.378906 C 53.449219 -61.550781 52.730469 -62.988281 51.292969 -62.988281 L 42.023438 -62.988281 C 41.304688 -62.988281 40.851562 -62.539062 40.582031 -62.179688 L 26.1875 -41.484375 L 11.789062 -62.179688 C 11.519531 -62.539062 11.066406 -62.988281 10.347656 -62.988281 L 1.167969 -62.988281 C -0.269531 -62.988281 -0.988281 -61.550781 -0.269531 -60.378906 L 20.246094 -30.324219 Z M 20.246094 -1.710938 "/></g></g></g><g fill="#222222" fill-opacity="1"><g transform="translate(92.266991, 264.420525)"><g><path d="M 2.789062 -11.429688 C 2.789062 -3.78125 7.738281 0.898438 14.9375 0.898438 C 20.515625 0.898438 23.847656 -1.800781 25.914062 -3.6875 L 26.996094 -1.261719 C 27.445312 -0.269531 27.894531 0 28.523438 0 L 31.765625 0 C 32.664062 0 33.472656 -0.808594 33.472656 -1.710938 L 33.472656 -21.238281 C 33.472656 -31.042969 30.863281 -36.894531 19.617188 -36.894531 C 13.859375 -36.894531 8.097656 -35.453125 7.378906 -35.183594 C 6.570312 -34.914062 5.847656 -34.285156 6.117188 -32.933594 L 6.929688 -28.253906 C 7.109375 -27.085938 7.738281 -26.277344 9 -26.636719 C 11.066406 -27.265625 15.746094 -27.984375 19.078125 -27.984375 C 22.40625 -27.984375 23.847656 -26.367188 23.757812 -21.777344 C 23.757812 -21.777344 20.785156 -22.765625 17.1875 -22.765625 C 8.007812 -22.765625 2.789062 -17.816406 2.789062 -11.429688 Z M 12.6875 -11.429688 C 12.6875 -14.308594 15.027344 -16.289062 18.535156 -16.289062 C 21.144531 -16.289062 23.574219 -15.207031 23.574219 -15.207031 L 23.574219 -10.257812 C 23.035156 -9.179688 20.246094 -6.75 17.367188 -6.75 C 14.578125 -6.75 12.6875 -8.730469 12.6875 -11.429688 Z M 12.6875 -11.429688 "/></g></g></g><g fill="#222222" fill-opacity="1"><g transform="translate(130.686944, 264.420525)"><g><path d="M 5.398438 -1.710938 C 5.398438 -0.808594 6.207031 0 7.109375 0 L 14.757812 0 C 15.65625 0 16.46875 -0.808594 16.46875 -1.710938 L 16.46875 -16.917969 L 30.683594 -0.71875 C 30.953125 -0.359375 31.675781 0 32.214844 0 L 41.933594 0 C 43.460938 0 44.003906 -1.53125 43.101562 -2.519531 L 27.085938 -19.707031 L 40.492188 -33.382812 C 41.394531 -34.375 40.851562 -35.992188 39.324219 -35.992188 L 31.136719 -35.992188 C 30.144531 -35.992188 29.515625 -35.453125 28.886719 -34.914062 L 16.46875 -22.316406 L 16.46875 -61.28125 C 16.46875 -62.179688 15.65625 -62.988281 14.757812 -62.988281 L 7.109375 -62.988281 C 6.207031 -62.988281 5.398438 -62.179688 5.398438 -61.28125 Z M 5.398438 -1.710938 "/></g></g></g><g fill="#222222" fill-opacity="1"><g transform="translate(174.685446, 264.420525)"><g><path d="M 5.398438 -1.710938 C 5.398438 -0.808594 6.207031 0 7.109375 0 L 14.039062 0 C 15.296875 0 16.105469 -0.449219 16.105469 -1.710938 L 16.105469 -23.484375 C 16.738281 -24.746094 18.898438 -27.175781 22.496094 -27.175781 C 23.484375 -27.175781 24.835938 -26.726562 25.105469 -26.636719 C 25.824219 -26.277344 26.726562 -26.636719 27.175781 -27.445312 L 30.503906 -33.292969 C 31.585938 -35.542969 27.804688 -36.894531 23.574219 -36.894531 C 17.996094 -36.894531 14.667969 -33.113281 13.40625 -31.316406 L 12.148438 -34.824219 C 11.878906 -35.542969 11.339844 -35.992188 10.527344 -35.992188 L 7.109375 -35.992188 C 6.207031 -35.992188 5.398438 -35.273438 5.398438 -34.285156 Z M 5.398438 -1.710938 "/></g></g></g><g fill="#222222" fill-opacity="1"><g transform="translate(205.367432, 264.420525)"><g><path d="M 2.699219 -17.996094 C 2.699219 -7.648438 10.347656 0.898438 21.144531 0.898438 C 26.996094 0.898438 31.585938 -1.261719 34.554688 -4.050781 C 35.453125 -4.769531 35.273438 -5.757812 34.644531 -6.390625 L 30.953125 -10.617188 C 30.324219 -11.339844 29.515625 -11.15625 28.613281 -10.617188 C 26.996094 -9.449219 24.386719 -8.367188 21.597656 -8.367188 C 16.378906 -8.367188 13.226562 -12.507812 12.957031 -16.199219 L 35.992188 -16.199219 C 36.804688 -16.199219 37.613281 -16.828125 37.703125 -17.726562 C 37.792969 -18.355469 37.882812 -19.527344 37.882812 -20.15625 C 37.882812 -29.875 30.324219 -36.894531 21.054688 -36.894531 C 10.347656 -36.894531 2.699219 -28.164062 2.699219 -17.996094 Z M 13.769531 -22.496094 C 14.21875 -25.914062 17.1875 -28.613281 20.785156 -28.613281 C 24.207031 -28.613281 27.085938 -25.824219 27.355469 -22.496094 Z M 13.769531 -22.496094 "/></g></g></g><g fill="#222222" fill-opacity="1"><g transform="translate(245.406964, 264.420525)"><g><path d="M 2.789062 -11.429688 C 2.789062 -3.78125 7.738281 0.898438 14.9375 0.898438 C 20.515625 0.898438 23.847656 -1.800781 25.914062 -3.6875 L 26.996094 -1.261719 C 27.445312 -0.269531 27.894531 0 28.523438 0 L 31.765625 0 C 32.664062 0 33.472656 -0.808594 33.472656 -1.710938 L 33.472656 -21.238281 C 33.472656 -31.042969 30.863281 -36.894531 19.617188 -36.894531 C 13.859375 -36.894531 8.097656 -35.453125 7.378906 -35.183594 C 6.570312 -34.914062 5.847656 -34.285156 6.117188 -32.933594 L 6.929688 -28.253906 C 7.109375 -27.085938 7.738281 -26.277344 9 -26.636719 C 11.066406 -27.265625 15.746094 -27.984375 19.078125 -27.984375 C 22.40625 -27.984375 23.847656 -26.367188 23.757812 -21.777344 C 23.757812 -21.777344 20.785156 -22.765625 17.1875 -22.765625 C 8.007812 -22.765625 2.789062 -17.816406 2.789062 -11.429688 Z M 12.6875 -11.429688 C 12.6875 -14.308594 15.027344 -16.289062 18.535156 -16.289062 C 21.144531 -16.289062 23.574219 -15.207031 23.574219 -15.207031 L 23.574219 -10.257812 C 23.035156 -9.179688 20.246094 -6.75 17.367188 -6.75 C 14.578125 -6.75 12.6875 -8.730469 12.6875 -11.429688 Z M 12.6875 -11.429688 "/></g></g></g><g fill="#222222" fill-opacity="1"><g transform="translate(283.826918, 264.420525)"><g><path d="M 2.699219 -17.996094 C 2.699219 -7.648438 10.167969 0.898438 19.976562 0.898438 C 27.535156 0.898438 31.765625 -4.5 31.765625 -4.5 L 32.664062 -1.710938 C 32.933594 -0.71875 33.5625 0 34.375 0 L 37.882812 0 C 38.785156 0 39.59375 -0.808594 39.59375 -1.710938 L 39.59375 -61.28125 C 39.59375 -62.179688 38.785156 -62.988281 37.882812 -62.988281 L 30.234375 -62.988281 C 29.335938 -62.988281 28.523438 -62.179688 28.523438 -61.28125 L 28.523438 -35.273438 C 26.90625 -35.902344 24.117188 -36.894531 20.515625 -36.894531 C 9.808594 -36.894531 2.699219 -28.523438 2.699219 -17.996094 Z M 13.136719 -17.996094 C 13.136719 -23.035156 16.828125 -27.175781 21.867188 -27.175781 C 26.367188 -27.175781 28.886719 -25.105469 28.886719 -25.105469 L 28.886719 -14.667969 C 28.253906 -12.507812 26.09375 -8.820312 21.328125 -8.820312 C 16.558594 -8.820312 13.136719 -12.957031 13.136719 -17.996094 Z M 13.136719 -17.996094 "/></g></g></g></svg>